<?xml version="1.0" ?>
<!DOCTYPE svg  PUBLIC '-//W3C//DTD SVG 1.1//EN'  'http://www.w3.org/Graphics/SVG/1.1/DTD/svg11.dtd'>
<!-- Uploaded to: SVG Repo, www.svgrepo.com, Generator: SVG Repo Mixer Tools -->
<svg fill="#000000" width="800px" height="800px" viewBox="0 0 512 512" enable-background="new 0 0 512 512" id="Business_x5F_solution" version="1.1" xml:space="preserve" xmlns="http://www.w3.org/2000/svg" xmlns:xlink="http://www.w3.org/1999/xlink">
<g>
<path d="M429.942,36.322h-39.967c-3.74,0-6.774,3.033-6.774,6.774s3.034,6.774,6.774,6.774h39.967   c17.748,0,32.187,14.438,32.187,32.187v88.841h-32.903v-46.452h11.613c3.74,0,6.774-3.032,6.774-6.774s-3.034-6.774-6.774-6.774   h-18.388c-3.74,0-6.773,3.032-6.773,6.774v60c0,3.742,3.033,6.774,6.773,6.774h39.678v125.029H334.346v-20.17h50.791v4.883   c0,3.741,3.033,6.773,6.774,6.773c3.74,0,6.774-3.032,6.774-6.773v-11.656c0-3.742-3.034-6.775-6.774-6.775h-64.34   c-3.74,0-6.774,3.033-6.774,6.775v26.943h-70.218c-3.74,0-6.774,3.033-6.774,6.775v145.877h-28.006   c-3.74,0-6.774,3.033-6.774,6.774c0,3.74,3.034,6.774,6.774,6.774h34.78h218.324c3.74,0,6.774-3.034,6.774-6.774V316.252V82.058   C475.678,56.839,455.16,36.322,429.942,36.322z M462.129,385.803h-16.404c-3.74,0-6.774,3.033-6.774,6.774s3.034,6.774,6.774,6.774   h16.404v62.777H257.354v-62.777H367.26v22.771h-15.037v-8.98c0-3.74-3.034-6.773-6.774-6.773c-3.741,0-6.774,3.033-6.774,6.773   v15.754c0,3.741,3.033,6.774,6.774,6.774h28.586c3.74,0,6.774-3.033,6.774-6.774v-29.545h34.734c3.741,0,6.774-3.033,6.774-6.774   s-3.033-6.774-6.774-6.774H257.354v-62.777h204.775V385.803z"/>
<path d="M78.31,286.008c-3.74,0-6.774,3.032-6.774,6.773v126.285c0,3.74,3.034,6.774,6.774,6.774c3.741,0,6.774-3.034,6.774-6.774   v-92.449h27.957c3.74,0,6.773-3.033,6.773-6.774v-99.918c0-3.741-3.033-6.774-6.773-6.774H78.31c-3.74,0-6.774,3.033-6.774,6.774   c0,3.742,3.034,6.774,6.774,6.774h27.957v86.369H85.084v-20.287C85.084,289.04,82.051,286.008,78.31,286.008z"/>
<path d="M388.04,248.318c3.74,0,6.774-3.032,6.774-6.774v-23.226h34.411c3.741,0,6.774-3.032,6.774-6.774s-3.033-6.774-6.774-6.774   h-34.411V90.577c0-3.742-3.034-6.774-6.774-6.774s-6.774,3.032-6.774,6.774v150.968C381.266,245.286,384.3,248.318,388.04,248.318z   "/>
<path d="M343.125,241.544V139.249h13.559c2.532,0,4.855-1.414,6.018-3.665c1.162-2.25,0.974-4.962-0.493-7.028l-35.382-49.878   c-1.27-1.791-3.328-2.855-5.524-2.855s-4.255,1.064-5.524,2.855l-35.382,49.878c-2.164,3.052-1.445,7.28,1.604,9.444   c3.055,2.165,7.283,1.446,9.445-1.606l29.856-42.089l22.271,31.396h-7.223c-3.74,0-6.774,3.033-6.774,6.774v102.392H181.113   c-3.74,0-6.774,3.033-6.774,6.774v162.68h-16.55V218.318h148.466c3.74,0,6.773-3.032,6.773-6.774v-79.069   c0-3.742-3.033-6.774-6.773-6.774c-3.741,0-6.774,3.033-6.774,6.774v72.295H151.015c-3.74,0-6.773,3.032-6.773,6.774v199.551   c0,3.74,3.033,6.774,6.773,6.774h30.099c3.74,0,6.774-3.034,6.774-6.774v-162.68h148.463   C340.092,248.416,343.125,245.286,343.125,241.544z"/>
<path d="M257.354,165.803V49.871h11.832c3.74,0,6.774-3.033,6.774-6.774s-3.034-6.774-6.774-6.774H82.058   c-25.218,0-45.735,20.517-45.735,45.736v347.884c0,25.218,20.518,45.735,45.735,45.735h37.302c3.74,0,6.774-3.034,6.774-6.774   c0-3.741-3.034-6.774-6.774-6.774H82.058c-17.748,0-32.187-14.438-32.187-32.187V260.005H78.31c3.741,0,6.774-3.032,6.774-6.774   c0-3.741-3.033-6.773-6.774-6.773H49.871v-73.88h45.677c3.74,0,6.774-3.033,6.774-6.774c0-3.742-3.034-6.774-6.774-6.774H49.871   v-76.97c0-17.749,14.438-32.187,32.187-32.187h6.716v68.913H78.31c-3.74,0-6.774,3.033-6.774,6.774s3.034,6.774,6.774,6.774h17.238   c3.74,0,6.774-3.033,6.774-6.774V49.871h26.95v34.457c0,3.741,3.034,6.774,6.774,6.774h69.107v34.456   c0,3.742,3.033,6.774,6.773,6.774c3.741,0,6.774-3.033,6.774-6.774v-41.23c0-3.742-3.033-6.774-6.774-6.774h-69.106V49.871h100.983   v109.157h-63.043v-41.355c0-3.742-3.033-6.774-6.774-6.774c-3.74,0-6.774,3.032-6.774,6.774v41.355h-31.166   c-3.74,0-6.774,3.033-6.774,6.774c0,3.741,3.034,6.774,6.774,6.774h114.532C254.319,172.577,257.354,169.544,257.354,165.803z"/>
</g>
</svg>